<mxfile host="app.diagrams.net" modified="2021-10-20T00:44:59.942Z" agent="5.0 (Macintosh; Intel Mac OS X 10_15_7) AppleWebKit/605.1.15 (KHTML, like Gecko) Version/15.0 Safari/605.1.15" etag="ykcvON42aSqd0phY6G3N" version="15.5.6" type="github">
  <diagram id="sucEhaXR1P-CHoPhd8ZA" name="Page-1">
    <mxGraphModel dx="946" dy="522" grid="1" gridSize="10" guides="1" tooltips="1" connect="1" arrows="1" fold="1" page="1" pageScale="1" pageWidth="827" pageHeight="1169" math="0" shadow="0">
      <root>
        <mxCell id="0" />
        <mxCell id="1" parent="0" />
        <mxCell id="Rzt5AbDcpFRBtSVwKlO6-7" style="rounded=0;orthogonalLoop=1;jettySize=auto;html=1;exitX=1;exitY=1;exitDx=0;exitDy=0;exitPerimeter=0;entryX=0;entryY=0;entryDx=25;entryDy=0;entryPerimeter=0;fontFamily=Comic Sans MS;fontSize=17;" edge="1" parent="1" source="Rzt5AbDcpFRBtSVwKlO6-4" target="Rzt5AbDcpFRBtSVwKlO6-6">
          <mxGeometry relative="1" as="geometry" />
        </mxCell>
        <mxCell id="Rzt5AbDcpFRBtSVwKlO6-8" style="edgeStyle=none;rounded=0;orthogonalLoop=1;jettySize=auto;html=1;exitX=0;exitY=0;exitDx=10;exitDy=50;exitPerimeter=0;entryX=0;entryY=0;entryDx=50;entryDy=0;entryPerimeter=0;fontFamily=Comic Sans MS;fontSize=17;" edge="1" parent="1" source="Rzt5AbDcpFRBtSVwKlO6-4" target="Rzt5AbDcpFRBtSVwKlO6-5">
          <mxGeometry relative="1" as="geometry" />
        </mxCell>
        <mxCell id="Rzt5AbDcpFRBtSVwKlO6-4" value="&lt;p&gt;&lt;font style=&quot;font-size: 17px&quot; face=&quot;Comic Sans MS&quot;&gt;j&lt;/font&gt;&lt;/p&gt;" style="shape=cube;whiteSpace=wrap;html=1;boundedLbl=1;backgroundOutline=1;darkOpacity=0.05;darkOpacity2=0.1;fontSize=14;size=10;" vertex="1" parent="1">
          <mxGeometry x="354" y="60" width="60" height="50" as="geometry" />
        </mxCell>
        <mxCell id="Rzt5AbDcpFRBtSVwKlO6-5" value="&lt;p&gt;&lt;font style=&quot;font-size: 17px&quot; face=&quot;Comic Sans MS&quot;&gt;m,s&lt;/font&gt;&lt;/p&gt;" style="shape=cube;whiteSpace=wrap;html=1;boundedLbl=1;backgroundOutline=1;darkOpacity=0.05;darkOpacity2=0.1;fontSize=14;size=10;" vertex="1" parent="1">
          <mxGeometry x="260" y="150" width="60" height="50" as="geometry" />
        </mxCell>
        <mxCell id="Rzt5AbDcpFRBtSVwKlO6-6" value="&lt;p&gt;&lt;font style=&quot;font-size: 17px&quot; face=&quot;Comic Sans MS&quot;&gt;m,s&lt;/font&gt;&lt;/p&gt;" style="shape=cube;whiteSpace=wrap;html=1;boundedLbl=1;backgroundOutline=1;darkOpacity=0.05;darkOpacity2=0.1;fontSize=14;size=10;" vertex="1" parent="1">
          <mxGeometry x="440" y="150" width="60" height="50" as="geometry" />
        </mxCell>
      </root>
    </mxGraphModel>
  </diagram>
</mxfile>
